<?xml version="1.0" encoding="utf-8"?>
<!-- Generator: Adobe Illustrator 23.0.5, SVG Export Plug-In . SVG Version: 6.00 Build 0)  -->
<svg version="1.1" id="Layer_1" xmlns="http://www.w3.org/2000/svg" xmlns:xlink="http://www.w3.org/1999/xlink" x="0px" y="0px"
	 viewBox="0 0 522 278.3" style="enable-background:new 0 0 522 278.3;" xml:space="preserve">
<style type="text/css">
	.st0{fill:#D7FF2E;}
	.st1{fill:none;stroke:#232323;stroke-width:6.8249;stroke-linecap:round;stroke-miterlimit:10;}
	.st2{fill:#FFFFFF;}
	.st3{fill:none;stroke:#232323;stroke-width:6.8249;stroke-linecap:round;stroke-linejoin:round;}
	.st4{fill:#282828;}
</style>
<title>Asset 1</title>
<g>
	<g id="Layer_1-2">
		<circle class="st0" cx="132.2" cy="138.7" r="66.3"/>
		<path class="st1" d="M165.2,106.2c-15.7,7.3-25,20.3-24.3,33.9c1.1,20.1,23.3,30.4,25,31.2"/>
		<g>
			<path class="st2" d="M220.7,141.1c0-0.3,0-0.8,0-1.3v-3.9c0-0.5,0-1,0-1.3c0-1.6,0.3-3.1,1-4.5c0.6-1.2,1.4-2.3,2.4-3.1
				c1.1-0.9,2.3-1.5,3.6-1.9c1.5-0.4,3-0.6,4.5-0.6c1.4,0,2.8,0.2,4.2,0.5c1.3,0.3,2.6,0.9,3.7,1.6c1.1,0.7,2,1.7,2.7,2.8
				c0.7,1.2,1.1,2.6,1,4.1c0,0.2-0.1,0.4-0.2,0.6c-0.2,0.2-0.4,0.2-0.6,0.2h-5.2c-0.3,0-0.6-0.1-0.8-0.2c-0.2-0.2-0.3-0.5-0.4-0.8
				c-0.2-1-0.7-1.9-1.5-2.5c-0.9-0.5-1.9-0.8-2.9-0.8c-2.8,0-4.3,1.6-4.4,4.7c0,0.3,0,0.8,0,1.3v3.7c0,0.5,0,1,0,1.3
				c0.1,3.1,1.6,4.7,4.4,4.7c1,0,2-0.2,2.8-0.8c0.8-0.6,1.4-1.5,1.6-2.5c0.1-0.3,0.2-0.6,0.4-0.8c0.2-0.2,0.5-0.2,0.8-0.2h5.3
				c0.2,0,0.4,0.1,0.6,0.2c0.1,0.1,0.2,0.4,0.2,0.6c0,1.4-0.3,2.9-1,4.1c-0.7,1.1-1.6,2.1-2.7,2.8c-1.1,0.7-2.4,1.3-3.7,1.6
				c-1.4,0.3-2.8,0.5-4.2,0.5c-1.5,0-3.1-0.2-4.6-0.6c-1.3-0.4-2.6-1-3.6-1.8c-1-0.8-1.9-1.9-2.4-3.1
				C221,144.2,220.7,142.7,220.7,141.1z"/>
			<path class="st2" d="M247.8,149.9V128c0-0.9,0.3-1.7,1-2.3c0.6-0.6,1.4-0.9,2.3-0.9h2.8c0.3,0,0.5,0.1,0.7,0.3
				c0.2,0.2,0.3,0.4,0.3,0.7v8.7c0,0.4,0.1,0.7,0.4,0.9c0.2,0.1,0.5,0.2,0.7,0.2c1.3,0,2.6-0.1,3.9-0.3c1-0.2,2-0.5,3-1
				c0.2-0.1,0.4-0.2,0.5-0.4c0.1-0.2,0.2-0.4,0.2-0.7V128c0-0.5,0.1-0.9,0.3-1.3c0.2-0.4,0.4-0.8,0.8-1c0.3-0.3,0.7-0.5,1-0.7
				c0.4-0.2,0.8-0.2,1.2-0.2h2.8c0.5,0,1,0.4,1,0.9c0,0,0,0,0,0v24.2c0,0.3-0.1,0.5-0.3,0.7c-0.2,0.2-0.4,0.3-0.7,0.2h-5
				c-0.2,0-0.5-0.1-0.7-0.3c-0.2-0.2-0.3-0.4-0.3-0.7V141c0-0.3-0.1-0.6-0.4-0.8c-0.2-0.2-0.5-0.3-0.8-0.3c-0.1,0-0.2,0-0.4,0
				c-1.2,0.3-2.4,0.6-3.7,0.7c-1.2,0.1-2.3,0.2-3.3,0.2h-1.3c-0.4,0-0.6,0-0.8-0.1c0.5,0.1,0.9,0.3,1.3,0.7c0.3,0.3,0.5,0.8,0.5,1.3
				v7.1c0,0.3-0.1,0.5-0.3,0.7c-0.2,0.2-0.5,0.3-0.7,0.2h-5.1C248.2,150.8,247.8,150.4,247.8,149.9
				C247.8,149.9,247.8,149.9,247.8,149.9L247.8,149.9z"/>
			<path class="st2" d="M273.7,150.6c-0.1-0.2-0.2-0.4-0.2-0.6c0-0.1,0-0.2,0-0.3l8.7-23.9c0.2-0.6,0.8-1.1,1.5-1h5.8
				c0.7,0,1.3,0.4,1.5,1l8.7,23.9c0.1,0.3,0,0.6-0.2,0.9c-0.1,0.2-0.3,0.2-0.5,0.2h-4.8c-0.6,0-1.1-0.3-1.3-0.8l-1.9-5.3
				c-0.9,0.3-1.8,0.6-2.7,0.9c-0.9,0.2-1.8,0.4-2.7,0.5c-0.9,0.1-1.7,0.2-2.4,0.2c-0.7,0-1.4,0-1.9,0h-0.9c-0.2,0-0.4,0-0.6,0
				c0.5,0,0.9,0.3,1.1,0.7c0.3,0.5,0.3,1,0.1,1.5l-0.5,1.4c-0.2,0.5-0.7,0.9-1.3,0.8h-4.8C274.1,150.8,273.9,150.7,273.7,150.6z
				 M283.2,141c0.7-0.1,1.4-0.1,2.2-0.3c0.8-0.1,1.3-0.2,2.1-0.4c0.7-0.2,1.4-0.5,2.1-0.8l-2.9-8.2L283.2,141z"/>
			<path class="st2" d="M302.7,149.9V128c0-0.9,0.3-1.7,1-2.3c0.6-0.6,1.4-0.9,2.3-0.9h3c0.3,0,0.5,0.1,0.7,0.3
				c0.2,0.2,0.3,0.4,0.3,0.7v24.2c0,0.3-0.1,0.5-0.3,0.7c-0.2,0.2-0.4,0.3-0.7,0.3h-5.3C303.1,150.9,302.7,150.5,302.7,149.9
				C302.7,150,302.7,150,302.7,149.9L302.7,149.9z"/>
			<path class="st2" d="M315,149.8v-21.9c0-0.9,0.3-1.7,0.9-2.3c0.6-0.6,1.4-1,2.3-1h1.2c0.4,0,0.7,0.1,1,0.2c0.5,0.2,0.9,0.5,1.2,1
				l4,6.3c0.7,1.1,1.3,2,1.7,2.7l1.2,1.8c0.4,0.6,0.7,1,0.9,1.4l0.4,0.7c0,0,0.1,0.1,0.2,0.1c0.1,0,0.2-0.1,0.2-0.1c0,0,0,0,0,0
				v-10.7c0-0.5,0.1-0.9,0.3-1.3c0.2-0.4,0.4-0.7,0.7-1c0.3-0.3,0.7-0.5,1-0.7c0.4-0.2,0.8-0.2,1.2-0.2h2.4c0.2,0,0.5,0.1,0.6,0.3
				c0.2,0.2,0.3,0.4,0.3,0.7v24.1c0,0.3-0.1,0.5-0.3,0.7c-0.2,0.2-0.4,0.3-0.6,0.3h-4.2c-0.5,0-1-0.2-1.3-0.7
				c-1.5-2.3-2.8-4.3-4-6.2c-0.8-1-1.3-2-1.8-2.6c-0.4-0.7-0.8-1.3-1.2-1.8c-0.4-0.6-0.7-1-0.9-1.4l-0.4-0.7c0-0.1-0.1-0.1-0.2-0.1
				c-0.2,0-0.2,0.1-0.2,0.2v12.5c0,0.3-0.1,0.5-0.3,0.7c-0.2,0.2-0.4,0.3-0.7,0.3h-4.7C315.4,150.8,315,150.4,315,149.8L315,149.8z"
				/>
			<path class="st2" d="M368.7,124.9c0.1,0.2,0.2,0.4,0.2,0.6v0.2l-4,23.8c0,0.3-0.2,0.7-0.5,0.9c-0.3,0.3-0.7,0.4-1,0.4h-3.7
				c-0.3,0-0.6-0.1-0.9-0.3c-0.3-0.2-0.4-0.4-0.5-0.7l-3.5-9.8c0-0.1-0.1-0.1-0.2-0.1c-0.1,0-0.1,0-0.2,0.1l-3.5,9.8
				c-0.2,0.6-0.8,1-1.4,1h-3.7c-0.4,0-0.8-0.1-1-0.4c-0.2-0.2-0.4-0.5-0.4-0.9l-4-23.8c0-0.2,0-0.3,0-0.5c0-0.1,0.1-0.2,0.2-0.3
				c0.2-0.1,0.4-0.2,0.6-0.2h4.9c0.7,0,1.1,0.3,1.2,0.9l2.1,13.2c0.1,0.1,0.1,0.2,0.2,0.2c0.1,0,0.2-0.1,0.2-0.1l2.3-7.4
				c0.1-0.6,0.6-1,1.2-1h2.8c0.6,0,1.2,0.4,1.2,1l2.3,7.3c0,0.1,0.1,0.2,0.2,0.1c0,0,0,0,0,0c0.1,0,0.2,0,0.2-0.1l2.3-13.2
				c0.1-0.2,0.2-0.5,0.3-0.7c0.3-0.1,0.5-0.2,0.8-0.2h4.9C368.3,124.7,368.5,124.7,368.7,124.9z"/>
			<path class="st2" d="M372.8,149.9V128c0-0.9,0.3-1.7,1-2.3c0.6-0.6,1.4-0.9,2.3-0.9h2.8c0.3,0,0.5,0.1,0.7,0.3
				c0.2,0.2,0.3,0.4,0.3,0.7v8.7c0,0.4,0.1,0.7,0.4,0.9c0.2,0.1,0.5,0.2,0.7,0.2c1.3,0,2.6-0.1,3.9-0.3c1-0.2,2-0.5,3-1
				c0.2-0.1,0.4-0.2,0.5-0.4c0.1-0.2,0.2-0.4,0.2-0.7V128c0-0.5,0.1-0.9,0.3-1.3c0.2-0.4,0.4-0.8,0.8-1c0.3-0.3,0.7-0.5,1-0.7
				c0.4-0.2,0.8-0.2,1.2-0.2h2.8c0.3,0,0.5,0.1,0.7,0.3c0.2,0.2,0.3,0.4,0.3,0.7v24.2c0,0.3-0.1,0.5-0.3,0.7
				c-0.2,0.2-0.4,0.3-0.7,0.2h-5c-0.2,0-0.5-0.1-0.7-0.3c-0.2-0.2-0.3-0.4-0.3-0.7V141c0-0.3-0.1-0.6-0.4-0.8
				c-0.2-0.2-0.5-0.2-0.8-0.3c-0.1,0-0.3,0-0.4,0c-1.2,0.3-2.4,0.6-3.7,0.7c-1.2,0.1-2.3,0.2-3.3,0.2h-1.3c-0.3,0-0.6,0-0.8-0.1
				c0.5,0.1,0.9,0.3,1.3,0.7c0.3,0.3,0.5,0.8,0.5,1.3v7.1c0,0.3-0.1,0.5-0.3,0.7c-0.2,0.2-0.5,0.3-0.7,0.2h-5.1
				C373.2,150.8,372.8,150.4,372.8,149.9C372.8,149.9,372.8,149.9,372.8,149.9L372.8,149.9z"/>
			<path class="st2" d="M400.7,149.9V128c0-0.9,0.3-1.7,1-2.3c0.6-0.6,1.4-0.9,2.3-0.9h3c0.3,0,0.5,0.1,0.7,0.3
				c0.2,0.2,0.3,0.4,0.3,0.7v24.2c0,0.2-0.1,0.5-0.3,0.7c-0.2,0.2-0.4,0.3-0.7,0.3h-5.3C401.2,150.9,400.8,150.5,400.7,149.9
				C400.7,150,400.7,149.9,400.7,149.9L400.7,149.9z"/>
			<path class="st2" d="M412.5,144.6l5.5-6.6c1-1.2,1.8-2.1,2.4-2.8c0.6-0.7,1.1-1.4,1.7-2c0.5-0.6,0.9-1.1,1.3-1.6l0.7-0.8
				c0.1-0.1,0.1-0.2,0-0.3c0-0.1-0.1-0.1-0.2-0.1h-10.6c-0.5,0-0.9-0.4-0.9-0.9c0,0,0,0,0-0.1v-1.5c0-0.4,0.1-0.8,0.3-1.2
				c0.2-0.4,0.4-0.7,0.7-1c0.3-0.3,0.6-0.6,1-0.7c0.4-0.2,0.8-0.3,1.3-0.3h16.7c0.3,0,0.5,0.1,0.7,0.3c0.2,0.2,0.3,0.4,0.3,0.7v3.7
				c0,0.5-0.2,0.9-0.4,1.3c-2,2.5-3.8,4.7-5.4,6.8l-2.3,2.9l-1.6,2l-1.3,1.6c-0.4,0.4-0.6,0.7-0.6,0.7c0,0.1,0,0.2,0,0.2
				c0.1,0.1,0.1,0.1,0.2,0.1h14.7c0.5,0,0.9,0.4,0.9,0.9c0,0,0,0,0,0.1v4c0,0.3-0.1,0.5-0.3,0.7c-0.2,0.2-0.4,0.3-0.7,0.3h-23.5
				c-0.3,0-0.5-0.1-0.7-0.3c-0.2-0.2-0.3-0.4-0.3-0.7V146c0-0.2,0-0.5,0.1-0.7c0-0.1,0.1-0.2,0.2-0.3L412.5,144.6z"/>
		</g>
		<polyline class="st3" points="92.9,106.2 129.9,139.4 90,169.5 		"/>
		<circle class="st4" cx="169.1" cy="138.6" r="6.1"/>
	</g>
</g>
</svg>
